<mxfile host="app.diagrams.net" modified="2023-11-17T13:24:43.698Z" agent="Mozilla/5.0 (Macintosh; Intel Mac OS X 10_15_7) AppleWebKit/537.36 (KHTML, like Gecko) Chrome/119.0.0.0 Safari/537.36" etag="tQmKkzojplKjyZDNXjYh" version="22.1.2" type="github">
  <diagram id="C5RBs43oDa-KdzZeNtuy" name="Page-1">
    <mxGraphModel dx="954" dy="642" grid="1" gridSize="10" guides="1" tooltips="1" connect="1" arrows="1" fold="1" page="1" pageScale="1" pageWidth="827" pageHeight="1169" math="0" shadow="0">
      <root>
        <mxCell id="WIyWlLk6GJQsqaUBKTNV-0" />
        <mxCell id="WIyWlLk6GJQsqaUBKTNV-1" parent="WIyWlLk6GJQsqaUBKTNV-0" />
        <mxCell id="XRYgX8iOLBa_Ez5NnuSC-2" value="" style="edgeStyle=orthogonalEdgeStyle;rounded=0;orthogonalLoop=1;jettySize=auto;html=1;" edge="1" parent="WIyWlLk6GJQsqaUBKTNV-1" source="XRYgX8iOLBa_Ez5NnuSC-0" target="XRYgX8iOLBa_Ez5NnuSC-1">
          <mxGeometry relative="1" as="geometry" />
        </mxCell>
        <mxCell id="XRYgX8iOLBa_Ez5NnuSC-0" value="Start" style="ellipse;whiteSpace=wrap;html=1;" vertex="1" parent="WIyWlLk6GJQsqaUBKTNV-1">
          <mxGeometry x="100" y="30" width="120" height="80" as="geometry" />
        </mxCell>
        <mxCell id="XRYgX8iOLBa_Ez5NnuSC-4" value="" style="edgeStyle=orthogonalEdgeStyle;rounded=0;orthogonalLoop=1;jettySize=auto;html=1;" edge="1" parent="WIyWlLk6GJQsqaUBKTNV-1" source="XRYgX8iOLBa_Ez5NnuSC-1" target="XRYgX8iOLBa_Ez5NnuSC-3">
          <mxGeometry relative="1" as="geometry" />
        </mxCell>
        <mxCell id="XRYgX8iOLBa_Ez5NnuSC-1" value="Input Number" style="shape=parallelogram;perimeter=parallelogramPerimeter;whiteSpace=wrap;html=1;fixedSize=1;" vertex="1" parent="WIyWlLk6GJQsqaUBKTNV-1">
          <mxGeometry x="100" y="160" width="120" height="60" as="geometry" />
        </mxCell>
        <mxCell id="XRYgX8iOLBa_Ez5NnuSC-6" value="" style="edgeStyle=orthogonalEdgeStyle;rounded=0;orthogonalLoop=1;jettySize=auto;html=1;" edge="1" parent="WIyWlLk6GJQsqaUBKTNV-1" source="XRYgX8iOLBa_Ez5NnuSC-3" target="XRYgX8iOLBa_Ez5NnuSC-5">
          <mxGeometry relative="1" as="geometry" />
        </mxCell>
        <mxCell id="XRYgX8iOLBa_Ez5NnuSC-3" value="Factorial(i) = 1" style="whiteSpace=wrap;html=1;" vertex="1" parent="WIyWlLk6GJQsqaUBKTNV-1">
          <mxGeometry x="100" y="280" width="120" height="60" as="geometry" />
        </mxCell>
        <mxCell id="XRYgX8iOLBa_Ez5NnuSC-8" value="" style="edgeStyle=orthogonalEdgeStyle;rounded=0;orthogonalLoop=1;jettySize=auto;html=1;" edge="1" parent="WIyWlLk6GJQsqaUBKTNV-1" source="XRYgX8iOLBa_Ez5NnuSC-5" target="XRYgX8iOLBa_Ez5NnuSC-7">
          <mxGeometry relative="1" as="geometry" />
        </mxCell>
        <mxCell id="XRYgX8iOLBa_Ez5NnuSC-5" value="For i = 1 To Number" style="rhombus;whiteSpace=wrap;html=1;" vertex="1" parent="WIyWlLk6GJQsqaUBKTNV-1">
          <mxGeometry x="95" y="400" width="130" height="140" as="geometry" />
        </mxCell>
        <mxCell id="XRYgX8iOLBa_Ez5NnuSC-10" value="" style="edgeStyle=orthogonalEdgeStyle;rounded=0;orthogonalLoop=1;jettySize=auto;html=1;" edge="1" parent="WIyWlLk6GJQsqaUBKTNV-1" source="XRYgX8iOLBa_Ez5NnuSC-7" target="XRYgX8iOLBa_Ez5NnuSC-9">
          <mxGeometry relative="1" as="geometry" />
        </mxCell>
        <mxCell id="XRYgX8iOLBa_Ez5NnuSC-13" value="True" style="edgeLabel;html=1;align=center;verticalAlign=middle;resizable=0;points=[];" vertex="1" connectable="0" parent="XRYgX8iOLBa_Ez5NnuSC-10">
          <mxGeometry x="-0.0667" y="3" relative="1" as="geometry">
            <mxPoint x="17" as="offset" />
          </mxGeometry>
        </mxCell>
        <mxCell id="XRYgX8iOLBa_Ez5NnuSC-20" style="edgeStyle=orthogonalEdgeStyle;rounded=0;orthogonalLoop=1;jettySize=auto;html=1;entryX=0.5;entryY=0;entryDx=0;entryDy=0;" edge="1" parent="WIyWlLk6GJQsqaUBKTNV-1" source="XRYgX8iOLBa_Ez5NnuSC-7" target="XRYgX8iOLBa_Ez5NnuSC-18">
          <mxGeometry relative="1" as="geometry" />
        </mxCell>
        <mxCell id="XRYgX8iOLBa_Ez5NnuSC-7" value="i &amp;lt;= number" style="rhombus;whiteSpace=wrap;html=1;" vertex="1" parent="WIyWlLk6GJQsqaUBKTNV-1">
          <mxGeometry x="95" y="600" width="130" height="140" as="geometry" />
        </mxCell>
        <mxCell id="XRYgX8iOLBa_Ez5NnuSC-12" value="" style="edgeStyle=orthogonalEdgeStyle;rounded=0;orthogonalLoop=1;jettySize=auto;html=1;" edge="1" parent="WIyWlLk6GJQsqaUBKTNV-1" source="XRYgX8iOLBa_Ez5NnuSC-9" target="XRYgX8iOLBa_Ez5NnuSC-11">
          <mxGeometry relative="1" as="geometry" />
        </mxCell>
        <mxCell id="XRYgX8iOLBa_Ez5NnuSC-9" value="Factorial = &lt;br&gt;Factorial * 1" style="whiteSpace=wrap;html=1;" vertex="1" parent="WIyWlLk6GJQsqaUBKTNV-1">
          <mxGeometry x="100" y="800" width="120" height="60" as="geometry" />
        </mxCell>
        <mxCell id="XRYgX8iOLBa_Ez5NnuSC-15" value="" style="edgeStyle=orthogonalEdgeStyle;rounded=0;orthogonalLoop=1;jettySize=auto;html=1;" edge="1" parent="WIyWlLk6GJQsqaUBKTNV-1" source="XRYgX8iOLBa_Ez5NnuSC-11" target="XRYgX8iOLBa_Ez5NnuSC-14">
          <mxGeometry relative="1" as="geometry" />
        </mxCell>
        <mxCell id="XRYgX8iOLBa_Ez5NnuSC-11" value="i += 1" style="whiteSpace=wrap;html=1;" vertex="1" parent="WIyWlLk6GJQsqaUBKTNV-1">
          <mxGeometry x="100" y="920" width="120" height="60" as="geometry" />
        </mxCell>
        <mxCell id="XRYgX8iOLBa_Ez5NnuSC-19" value="" style="edgeStyle=orthogonalEdgeStyle;rounded=0;orthogonalLoop=1;jettySize=auto;html=1;" edge="1" parent="WIyWlLk6GJQsqaUBKTNV-1" source="XRYgX8iOLBa_Ez5NnuSC-14" target="XRYgX8iOLBa_Ez5NnuSC-18">
          <mxGeometry relative="1" as="geometry" />
        </mxCell>
        <mxCell id="XRYgX8iOLBa_Ez5NnuSC-14" value="Output factorial" style="shape=parallelogram;perimeter=parallelogramPerimeter;whiteSpace=wrap;html=1;fixedSize=1;" vertex="1" parent="WIyWlLk6GJQsqaUBKTNV-1">
          <mxGeometry x="300" y="920" width="120" height="60" as="geometry" />
        </mxCell>
        <mxCell id="XRYgX8iOLBa_Ez5NnuSC-18" value="End" style="ellipse;whiteSpace=wrap;html=1;" vertex="1" parent="WIyWlLk6GJQsqaUBKTNV-1">
          <mxGeometry x="480" y="910" width="120" height="80" as="geometry" />
        </mxCell>
        <mxCell id="XRYgX8iOLBa_Ez5NnuSC-21" value="False" style="text;html=1;align=center;verticalAlign=middle;resizable=0;points=[];autosize=1;strokeColor=none;fillColor=none;" vertex="1" parent="WIyWlLk6GJQsqaUBKTNV-1">
          <mxGeometry x="285" y="668" width="50" height="30" as="geometry" />
        </mxCell>
      </root>
    </mxGraphModel>
  </diagram>
</mxfile>
